# xmcd CD database file
#
# Track frame offsets:
#	150
#	15369
#	31794
#	50824
#	66187
#	87965
#	104832
#	117958
#	134451
#	153014
#	169616
#	187465
#	199690
#	215357
#
# Disc length: 3116 seconds
#
# Revision: 1
# Processed by: cddbd v1.5.2PL0 Copyright (c) Steve Scherf et al.
# Submitted via: CDex 1.79
#
DISCID=c30c2a0e
DTITLE=Jesse And Noah - Nowhere Revisited
DYEAR=2007
DGENRE=Country
TTITLE0=Daddy's Got A Shotgun
TTITLE1=Wild And Willin'
TTITLE2=I'm All About You
TTITLE3=You're The World (featuring The Bellamy Brothers)
TTITLE4=Drivin' Nowhere
TTITLE5=Santa Ana Winds
TTITLE6=Faster Horses (The Cowboy And The Poet)
TTITLE7=Spirit Road
TTITLE8=Soul Food
TTITLE9=Every Day's A Revolution
TTITLE10=Tumblin' Down
TTITLE11=You Got The Wrong Number
TTITLE12=You Can Always Count On Me (To Let You Down)
TTITLE13=The Best Thing I'll Ever Know 
EXTD=YEAR: 2007
EXTT0=
EXTT1=
EXTT2=
EXTT3=
EXTT4=
EXTT5=
EXTT6=
EXTT7=
EXTT8=
EXTT9=
EXTT10=
EXTT11=
EXTT12=
EXTT13=
PLAYORDER=
